<svg width="40" height="40" viewBox="0 0 40 40" fill="none" xmlns="http://www.w3.org/2000/svg">
<g clip-path="url(#clip0_109_19)">
<path d="M8.04444 17.3111C11.2444 23.6 16.4 28.7556 22.6889 31.9556L27.5778 27.0667C28.2 26.4444 29.0667 26.2667 29.8444 26.5111C32.3333 27.3333 35 27.7778 37.7778 27.7778C38.3671 27.7778 38.9324 28.012 39.3491 28.4287C39.7658 28.8453 40 29.4107 40 30V37.7778C40 38.3671 39.7658 38.9324 39.3491 39.3491C38.9324 39.7658 38.3671 40 37.7778 40C27.7584 40 18.1496 36.0198 11.0648 28.9351C3.98016 21.8504 0 12.2415 0 2.22222C0 1.63284 0.234134 1.06762 0.650867 0.650867C1.06762 0.234134 1.63284 0 2.22222 0H10C10.5894 0 11.1546 0.234134 11.5714 0.650867C11.9881 1.06762 12.2222 1.63284 12.2222 2.22222C12.2222 5 12.6667 7.66667 13.4889 10.1556C13.7333 10.9333 13.5556 11.8 12.9333 12.4222L8.04444 17.3111Z" fill="#181818"/>
</g>
<defs>
<clipPath id="clip0_109_19">
<rect width="40" height="40" fill="white"/>
</clipPath>
</defs>
</svg>
