<svg xmlns="http://www.w3.org/2000/svg" viewBox="-0.5 -0.5 24 24" fill="currentColor" id="Behance-Logo-Bold--Streamline-Phosphor.svg" height="24" width="24"><desc>Behance Logo Bold Streamline Icon: https://streamlinehq.com</desc><path d="M9.733716796875001 10.857796875c2.048500390625 -2.381317578125 0.750958984375 -6.087210546874999 -2.335569140625 -6.670610937499999 -0.24921757812499998 -0.04709609375 -0.50228046875 -0.07086875 -0.7559093750000001 -0.070985546875H1.39586640625C0.75195625 4.116164453125 0.23 4.63814765625 0.23 5.282057812500001v12.43586640625c0 0.6438832031249999 0.52197421875 1.165857421875 1.16586640625 1.165857421875h5.635c3.440341796875 -0.00235390625 5.588002734375 -3.728111328125 3.865787890625 -6.706359765625 -0.296403515625 -0.512567578125 -0.691698046875 -0.9611304687500001 -1.1629375000000002 -1.319625ZM2.5617238281250003 6.447924218749999H6.64223828125c1.346227734375 0 2.187614453125 1.457328515625 1.514505078125 2.6231859374999997 -0.312377734375 0.5410570312499999 -0.889749609375 0.8743683593750001 -1.514505078125 0.8743953125H2.5617238281250003Zm4.469142578125 10.10413359375H2.5617238281250003v-4.274828515625h4.469142578125c1.64538046875 0 2.6737410156249997 1.781179296875 1.85105078125 3.206128125 -0.381808984375 0.661312890625 -1.0874328125 1.0687003906249999 -1.85105078125 1.0687003906249999Zm6.41223828125 -10.10413359375c0 -0.6438921875 0.52197421875 -1.16586640625 1.165857421875 -1.16586640625h6.217933203125c0.89748515625 0 1.458406640625 0.97155234375 1.0096640625 1.748799609375 -0.2082578125 0.360713671875 -0.5931394531249999 0.58292421875 -1.0096640625 0.58292421875h-6.217933203125c-0.6438832031249999 0 -1.165857421875 -0.52197421875 -1.165857421875 -1.165857421875Zm4.274828515625 2.331723828125c-3.889084375 0 -6.3197621093750005 4.2100511718749996 -4.375219921875 7.5781046875 0.9025074218749999 1.5631824218750001 2.5702050781250003 2.5261097656250002 4.375219921875 2.52602890625 0.764166015625 0.002075390625 1.5186378906249998 -0.171089453125 2.205421484375 -0.5061796875 0.8153679687500001 -0.375016796875 0.9190027343749999 -1.49207109375 0.18654257812499997 -2.010694140625 -0.354514453125 -0.251014453125 -0.8191773437500001 -0.28412187499999997 -1.205703125 -0.08590859375 -0.369572265625 0.17963359375000001 -0.775342578125 0.27235234375 -1.1862609375 0.27105859374999997 -1.050462109375 -0.0011140625 -2.0067589843749998 -0.60588828125 -2.458026171875 -1.5544765624999999h6.3442265625c0.64387421875 -0.0000359375 1.16586640625 -0.5220011718750001 1.16586640625 -1.16586640625 -0.0032164062499999996 -2.788848828125 -2.26321796875 -5.048850390625 -5.052066796875 -5.052066796875Zm-2.458026171875 3.886200390625c0.89719765625 -1.8921812500000001 3.506305078125 -2.103556640625 4.696384375 -0.380461328125 0.08335703124999999 0.12069609375 0.156822265625 0.2479328125 0.21966796875 0.380461328125Z" stroke-width="1"></path></svg>